<svg xmlns="http://www.w3.org/2000/svg" width="284" height="464" xmlns:v="https://vecta.io/nano"><style><![CDATA[.B{fill:#000}.C{font-size:18.667px}.D{stroke:#000}.E{stroke-width:.378}]]></style><path d="M.358.716h283.169v463.02H.358z" fill="#fff"/><g fill="none" class="D"><g stroke-linejoin="round"><use href="#B" paint-order="stroke markers fill"/><use href="#B" x="35.865" y="-0.1" paint-order="stroke markers fill"/><g stroke-width=".97"><use href="#C" paint-order="stroke markers fill"/><use href="#C" x="-37.442" paint-order="stroke markers fill"/></g></g><path d="M9.043 428.536h100.458m.498-75.661v101.806m7.493-83.024c-.104-5.292 4.377-9.676 10.003-9.786s10.275 4.095 10.379 9.386-4.377 9.676-10.003 9.786-10.275-4.095-10.379-9.386z"/><path d="M139.671 371.058h-5.495"/><g class="E"><use href="#D"/><path d="M139.578 370.889l.814.218m-.796-.2l.236.882m-.272-.794l-.574.574"/></g><path d="M10.091 348.579h62.742v46.757H9.491"/><use href="#E"/><use href="#E" x="10.391"/><use href="#E" x="10.391" y="-10.29"/><use href="#E" x="-0.1" y="-10.29"/><path d="M275.235 111.055h-83.927v7.912h84.209M8.792 113.296h98.609v6.094H9.092"/><path d="M151.782 458.578H5.404V5.033h272.974v453.544h-81.666" stroke-width="10.828"/><path d="M145.166 112.396v188.127h36.067m93.913-.2h-59.345v17.384m-.4 23.379v48.156m.8 27.174v38.564m-.4-102.105h59.145m-182.542-.495h53.408v101.588" stroke-width="3.647"/><path d="M246.129 454.957v-39.562h34.475m-61.806-61.122s-.801 13.787 1.898 13.787l20.581-.2c2.493 0 2.488-8.088 2.298-13.687"/></g><g transform="rotate(270 178.321 318.321)" fill="none" class="D"><path d="M139.671 371.058h-5.495"/><g class="E"><use href="#D"/><path d="M139.578 370.889l.814.218m-.796-.2l.236.882m-.272-.794l-.574.574"/></g></g><path d="M240.021 453.239c0-25.732-17.686-25.566-17.686.149" fill="none" stroke-width="1.494" class="D"/><path d="M230.264 449.769c0-.78.562-1.413 1.254-1.413s1.254.633 1.254 1.413-.562 1.413-1.254 1.413-1.254-.633-1.254-1.413z"/><g fill="none" class="D"><path d="M10.39 252.567h95.612v49.454H9.891v-23.378h96.111m4.896-117.092h34.069v36.366h-34.069zm-98.747 20.573l27.552 17.944 35.181-54.821-28.4-17.238zm241.415-44.751c0-5.19 4.163-9.402 9.291-9.402s9.291 4.212 9.291 9.402-4.163 9.402-9.291 9.402-9.291-4.212-9.291-9.402zm-108.3 22.779h17.484v80.726h-18.083m130.144-83.762H182.83v94.665h91.415"/><path d="M273.822 204.59h-90.85" stroke-dasharray="15,10" stroke-dashoffset="24.4"/><path d="M259.461 274.847v2.897m-43.96 21.58v-24.477h58.646m-38.065.1v2.897"/><path d="M38.664 220.735c0-6.671 5.35-12.085 11.943-12.085s11.943 5.414 11.943 12.085-5.35 12.085-11.943 12.085-11.943-5.414-11.943-12.085z" stroke-width="1.285"/><path d="M273.648 256.264c-17.302 0-17.19 11.789.1 11.789"/></g><switch><text xml:space="preserve" style="white-space:pre" font-size="32" class="B"><tspan x="99.056" y="47.28">Loggia </tspan><tspan x="86.784" y="87.28">(Balkon) </tspan></text><text xml:space="preserve" style="white-space:pre" systemLanguage="de" font-size="32" class="B"><tspan x="99.056" y="47.28">Loggia </tspan><tspan x="86.784" y="87.28">(Balkon) </tspan></text></switch><switch><text xml:space="preserve" style="white-space:pre" x="24.328" transform="rotate(302.916 55.811 171.413)" y="0" class="B C"><tspan x="28.524" y="155.02">Schlaf- </tspan><tspan x="39.229" y="169.02">sofa</tspan></text><text xml:space="preserve" style="white-space:pre" x="24.328" transform="rotate(302.916 55.811 171.413)" systemLanguage="de" y="0" class="B C"><tspan x="28.524" y="155.02">Schlaf- </tspan><tspan x="39.229" y="169.02">sofa</tspan></text></switch><switch transform="rotate(60 -47.27 224.723)"><text xml:space="preserve" style="white-space:pre" x="24.328" transform="rotate(302.916 55.811 171.413)" y="0" class="B C"><tspan x="38.249" y="155.02">Sofa</tspan></text><text xml:space="preserve" style="white-space:pre" x="24.328" transform="rotate(302.916 55.811 171.413)" systemLanguage="de" y="0" class="B C"><tspan x="38.249" y="155.02">Sofa</tspan></text></switch><switch><text xml:space="preserve" style="white-space:pre" class="B C"><tspan x="113.033" y="185.684">TV</tspan></text><text xml:space="preserve" style="white-space:pre" systemLanguage="de" class="B C"><tspan x="113.033" y="185.684">TV</tspan></text></switch><defs ><path id="B" d="M14.808 345.07h17.52c0-4.772-2.036-11.559-7.612-11.559-8.22.092-9.868 6.952-9.908 11.559z"/><path id="C" d="M51.257 399.705h17.551c0 4.479-2.04 10.849-7.625 10.849-8.235-.08-9.885-6.524-9.925-10.849z"/><path id="D" d="M138.819 370.041l.777.777.454-.786"/><path id="E" d="M114.594 424.109c.278-2.25 2.316-3.852 4.549-3.576s3.821 2.325 3.543 4.575-2.316 3.852-4.549 3.576-3.821-2.325-3.543-4.575z"/></defs></svg>